,
Brought to you by  http://www.scenetime.com/signup.php
 
 Hottest scene tracker on the net !!!   
 
No fake torrents from scenebalance 
shame on those who comment fake before downloading my torrents

    seed back for speed


 



...................................NFO:.................................................Love in Between (2010)

Also Known As: Two Women 

Release Date: November 18, 2010
Country: South Korea
Language: Korean
Genre: Romance
Runtime: 105 min.
Subtitles: English (Embedded)
Director: Jeong Yun-Su
Writers: Shin Yang-Joong, Jeong Yun-Su
Starring: Shin Eun-Kyung, Jeong Jun-Ho, Shim Yi-Young

Plot: "Love, In Between" centers around a woman who discovers that her husband is having an affair. Prior to this, the couple were nearly perfect and the movie reflects the choices one might make in such a situation.

University professor Yun Ji-Seok (Jeong Jun-Ho) loves his wife, but also cannot give up his new love. So-Young (Shin Eun-Kyung) works as an obstetrician and is the wife caught in the middle. After she discovers her husband's affair with a student named Su-Ji (Shim Lee-Yeong), So-Young embarks an elaborate to befriend the woman. When So-Young meets Su-Ji she experiences varying emotions from wanting revenge to sympath ...

General Info:
      Complete name : Love in Between 2010 DVDRip XViD-OCW
      Format : AVI
      Format/Info : Audio Video Interleave
      File size : 707 MiB
      Duration : 1h 44mn
      Overall bit rate : 943 Kbps
      Writing application : MEncoder 1.0rc2-4.2.4
      Writing library : MPlayer
   Video #0
      ID : 0
      Format : MPEG-4 Visual
      Format profile : Simple@L1
      Format settings, BVOP : No
      Format settings, QPel : No
      Format settings, GMC : No warppoints
      Format settings, Matrix : Default (H.263)
      Codec ID : XVID
      Codec ID/Hint : XviD
      Duration : 1h 44mn
      Bit rate : 802 Kbps
      Width : 512 pixels
      Height : 288 pixels
      Display aspect ratio : 16:9
      Frame rate : 29.970 fps
      Resolution : 24 bits
      Colorimetry : 4:2:0
      Scan type : Progressive
      Bits/(Pixel*Frame) : 0.182
      Stream size : 601 MiB (85%)
      Writing library : Lavc51.44.0
   Audio #1
      ID : 1
      Format : MPEG Audio
      Format version : Version 1
      Format profile : Layer 3
      Codec ID : 55
      Codec ID/Hint : MP3
      Duration : 1h 44mn
      Bit rate mode : Constant
      Bit rate : 128 Kbps
      Channel(s) : 2 channels
      Sampling rate : 44.1 KHz
      Resolution : 16 bits
      Stream size : 95.9 MiB (14%)
      Alignment : Aligned on interleaves
      Interleave, duration : 26 ms (0.78 video frame)
      Interleave, preload duration : 522 ms
      Writing library : LAME3.98